Coordinates
version=1
nRows=22
nColumns=26
inDegrees=yes

Units are S.I. units (second, meters, Newtons, ...)
Angles are in degrees.

endheader
time	pelvis_tilt	pelvis_list	pelvis_rotation	pelvis_tx	pelvis_ty	pelvis_tz	hip_flexion_r	hip_adduction_r	hip_rotation_r	knee_angle_r	knee_angle_r_beta	ankle_angle_r	subtalar_angle_r	mtp_angle_r	hip_flexion_l	hip_adduction_l	hip_rotation_l	knee_angle_l	knee_angle_l_beta	ankle_angle_l	subtalar_angle_l	mtp_angle_l	lumbar_extension	lumbar_bending	lumbar_rotation
    234.75202360	    -11.61542716	      0.14491849	     -4.15578977	      0.18841269	      1.03210786	      0.27499761	     10.40540363	      3.53111838	      6.95132760	     32.79295030	     32.79295030	     15.97145099	    -11.71765176	      0.00000000	     35.67525503	      0.32200674	     -1.19494503	     81.04291021	     81.04291021	     -4.42151073	    -22.71490466	      0.00000000	     -8.67058847	      1.15845623	     11.77936213
    234.76202360	    -11.82107497	      0.53379188	     -4.03881135	      0.18958571	      1.03913278	      0.27555419	      7.73839214	      2.93693224	      7.39753683	     30.35462960	     30.35462960	     11.79562328	    -12.26440255	      0.00000000	     36.91388256	      0.62881702	     -1.36584075	     77.45556699	     77.45556699	     -4.30201069	    -22.96334442	      0.00000000	     -8.22114415	      0.39260740	     12.64421616
    234.77202360	    -12.06554362	      1.11285106	     -3.79860815	      0.19116755	      1.04614716	      0.27556517	      5.34076023	      1.95649290	      7.19992085	     28.11014121	     28.11014121	      7.39798788	    -12.15691602	      0.00000000	     37.90126283	      1.23187584	     -1.57440337	     73.32192545	     73.32192545	     -3.98467660	    -22.83204564	      0.00000000	     -7.70200576	     -0.53802825	     13.16192470
    234.78202360	    -12.14983129	      1.55168168	     -3.50567457	      0.19306945	      1.05334012	      0.27525703	      2.81289276	      1.09654522	      6.88641637	     25.75100701	     25.75100701	      2.56179012	    -11.92758571	      0.00000000	     38.42613331	      1.79861162	     -1.66900378	     68.69476914	     68.69476914	     -3.78491795	    -22.65411110	      0.00000000	     -7.38750829	     -1.27585369	     13.62836496
    234.79202360	    -12.19186707	      2.00959111	     -3.16783111	      0.19514228	      1.06031821	      0.27461514	      0.36645246	      0.18894129	      6.46176663	     23.42214818	     23.42214818	     -2.53293153	    -11.44730000	      0.00000000	     38.65997729	      2.45596942	     -1.71960476	     63.68623224	     63.68623224	     -3.72613472	    -22.21249876	      0.00000000	     -7.12139097	     -2.00520175	     13.88028866
    234.80202360	    -12.23189863	      2.25928899	     -2.76985728	      0.19729549	      1.06677064	      0.27391446	     -2.01779467	     -0.42948752	      6.17082257	     21.07948114	     21.07948114	     -7.79513582	    -11.16567047	      0.00000000	     38.66673937	      2.96308486	     -1.61684114	     58.37519814	     58.37519814	     -3.87957452	    -21.62108014	      0.00000000	     -6.87597314	     -2.47724231	     14.15108459
    234.81202360	    -12.33005882	      2.47552787	     -2.37235635	      0.19929003	      1.07257272	      0.27335821	     -4.08038108	     -0.92675853	      6.00619597	     19.12048377	     19.12048377	    -12.95910853	    -11.14585597	      0.00000000	     38.49950030	      3.44544154	     -1.48273155	     52.72566390	     52.72566390	     -4.15474126	    -20.80904088	      0.00000000	     -6.59642296	     -2.93252201	     14.30488246
    234.82202360	    -12.47903458	      2.23907507	     -2.03641722	      0.20105113	      1.07751903	      0.27334245	     -5.96882141	     -0.71880721	      6.83866341	     17.34019577	     17.34019577	    -18.51109130	    -12.47896184	      0.00000000	     38.23282170	      3.47521253	     -1.06130943	     47.01345488	     47.01345488	     -4.44604213	    -19.65812697	      0.00000000	     -6.29409038	     -2.90506322	     14.64927506
    234.83202360	    -12.40547079	      2.00993598	     -1.57206083	      0.20292266	      1.08175326	      0.27309390	     -7.79762561	     -0.51246282	      7.49452195	     16.18383353	     16.18383353	    -23.16238062	    -13.44240598	      0.00000000	     37.57883365	      3.65604589	     -0.43685881	     41.23545640	     41.23545640	     -4.69852063	    -18.26264793	      0.00000000	     -6.26381458	     -2.86795276	     14.71392568
    234.84202360	    -12.33426978	      1.68614038	     -1.14435992	      0.20446183	      1.08496942	      0.27289565	     -9.18694124	     -0.14025772	      8.41006618	     15.94450634	     15.94450634	    -27.20768518	    -14.65788305	      0.00000000	     36.90349947	      3.70000114	      0.22049706	     35.65594604	     35.65594604	     -4.55000191	    -16.11873408	      0.00000000	     -6.25298675	     -2.72063920	     14.66871381
    234.85202360	    -12.21766112	      1.12195491	     -0.87079244	      0.20570155	      1.08700911	      0.27303399	    -10.26912391	      0.56598611	      9.70308260	     16.55887252	     16.55887252	    -30.66215263	    -15.94853680	      0.00000000	     36.19902113	      3.40040704	      0.86017448	     30.46090443	     30.46090443	     -4.01183100	    -13.64638313	      0.00000000	     -6.30303009	     -2.31494109	     14.83589495
    234.86202360	    -12.08783308	      0.76224755	     -0.61918114	      0.20678267	      1.08773470	      0.27304076	    -10.79380488	      1.13543184	     10.48447331	     18.70729673	     18.70729673	    -32.05091179	    -17.07133602	      0.00000000	     35.49988468	      3.21682141	      1.09101751	     25.63618468	     25.63618468	     -3.51626567	    -11.09905833	      0.00000000	     -6.36038254	     -2.14562644	     14.73605242
    234.87202360	    -11.77402095	      0.39011486	     -0.34802429	      0.20790490	      1.08739074	      0.27303393	    -11.27141138	      1.84665221	     11.29489559	     21.66081695	     21.66081695	    -31.63431148	    -18.29582637	      0.00000000	     34.72121222	      2.99354727	      0.93064958	     21.52934418	     21.52934418	     -2.97405315	     -8.65012731	      0.00000000	     -6.61574360	     -1.97379622	     14.62189983
    234.88202360	    -11.19414523	      0.05233269	     -0.03909754	      0.20871410	      1.08651317	      0.27305745	    -11.63967827	      2.59573544	     11.70973523	     25.45120509	     25.45120509	    -29.94127264	    -19.19835617	      0.00000000	     33.89615008	      2.73493962	     -0.05331779	     18.41451848	     18.41451848	     -2.54904888	     -6.02666841	      0.00000000	     -7.24058545	     -1.83174943	     14.42988268
    234.89202360	    -10.50948659	     -0.14321042	      0.40679539	      0.20913068	      1.08504651	      0.27274320	    -11.73547792	      3.25604845	     11.64218314	     29.92364012	     29.92364012	    -28.05085972	    -20.13873909	      0.00000000	     33.16352252	      2.71124128	     -1.29936510	     16.29254681	     16.29254681	     -2.52434422	     -4.11850388	      0.00000000	     -8.03730014	     -1.80804078	     14.02296377
    234.90202360	     -9.79986203	     -0.21629054	      0.95119534	      0.20917881	      1.08284565	      0.27213597	    -11.50843967	      3.80068526	     11.16108066	     34.93494332	     34.93494332	    -26.28778951	    -20.99924552	      0.00000000	     32.54463677	      2.86088984	     -2.67792804	     15.11601078	     15.11601078	     -2.25698815	     -2.51306162	      0.00000000	     -8.89298535	     -1.88792183	     13.39248124
    234.91202360	     -9.11448411	     -0.32244859	      1.47674211	      0.20879293	      1.07968595	      0.27161756	    -10.95151447	      4.38066772	     10.56735227	     40.35764385	     40.35764385	    -24.53299798	    -21.57692558	      0.00000000	     32.09430926	      2.94399860	     -4.05923145	     14.89325971	     14.89325971	     -1.67418792	     -1.28720387	      0.00000000	     -9.76249393	     -1.95562845	     12.73349360
    234.92202360	     -8.45473469	     -0.39979521	      1.96015322	      0.20821038	      1.07548946	      0.27125195	    -10.12457360	      4.88542093	      9.86857949	     46.00760508	     46.00760508	    -23.19542160	    -21.96007437	      0.00000000	     31.72916507	      3.01960457	     -5.17088394	     15.47501218	     15.47501218	     -1.15062627	     -0.76701002	      0.00000000	    -10.59859631	     -2.07192932	     12.13495172
    234.93202360	     -7.70269996	     -0.41651455	      2.39248202	      0.20769857	      1.07043300	      0.27110052	     -9.23635413	      5.21629974	      8.89732818	     51.68678981	     51.68678981	    -22.60286258	    -22.71704015	      0.00000000	     31.17071000	      3.12480638	     -5.90604882	     16.50838977	     16.50838977	     -0.89325415	     -1.11137605	      0.00000000	    -11.52531893	     -2.25148353	     11.56238154
    234.94202360	     -7.33627839	     -0.57011886	      2.50281499	      0.20672169	      1.06385404	      0.27171639	     -7.64725092	      5.51959527	      8.11729305	     57.64757367	     57.64757367	    -21.51630582	    -22.56053769	      0.00000000	     31.00480292	      2.93059110	     -6.20764900	     18.01997513	     18.01997513	     -0.99263858	     -2.00487067	      0.00000000	    -12.01003879	     -2.36520432	     11.47668768
    234.95202360	     -7.01727762	     -0.58940746	      2.61257416	      0.20563932	      1.05645780	      0.27251047	     -5.88493373	      5.57341910	      7.18574672	     63.50681541	     63.50681541	    -20.62536846	    -22.55263597	      0.00000000	     30.85586516	      2.91459662	     -5.78285087	     20.01001169	     20.01001169	     -1.99574221	     -3.73002188	      0.00000000	    -12.43780585	     -2.66335963	     11.26853111
    234.96202360	     -6.89274034	     -0.30900538	      2.81504275	      0.20420136	      1.04812989	      0.27270475	     -3.76523733	      5.10326030	      6.06143547	     69.37748215	     69.37748215	    -19.35225420	    -22.20176470	      0.00000000	     30.93708775	      3.48785347	     -4.59446760	     22.89128911	     22.89128911	     -2.26231720	     -6.68124627	      0.00000000	    -12.69151777	     -3.24581909	     10.73031447
